# xmcd
#
# Track frame offsets: 
#        150
#        19481
#        45699
#        70708
#        91592
#        115258
#        140185
#        156789
#        178176
#        213775
#        228277
#
# Disc length: 3345 seconds
#
# Revision: 1
# Processed by: cddbd v1.5.2PL0 Copyright (c) Steve Scherf et al.
# Submitted via: ExactAudioCopy v0.99pb5
#
DISCID=920d0f0b
DTITLE=Manolito Y Su Trabuco - Control
DYEAR=2008
DGENRE=Salsa
TTITLE0=Relampago
TTITLE1=Loco por tus besos
TTITLE2=Comenzar
TTITLE3=La Habana me llama
TTITLE4=Colleccionista de canciones
TTITLE5=Muevete
TTITLE6=Niebla del riachuelo
TTITLE7=Corazon
TTITLE8=Popurrit (Salidata contigo - Tu me dijiste mentira - Tu me rec
TTITLE8=ordaras - Caballo grande ande o no ande - Llego la musica cuba
TTITLE8=na na - Linda melodia)
TTITLE9=Guines que le pasa a Tata
TTITLE10=Control
EXTD=YEAR: 2008
EXTT0=
EXTT1=
EXTT2=
EXTT3=
EXTT4=
EXTT5=
EXTT6=
EXTT7=
EXTT8=
EXTT9=
EXTT10=
PLAYORDER=
